<svg width="379" height="112" viewBox="0 0 379 112" fill="none" xmlns="http://www.w3.org/2000/svg">
<g clip-path="url(#clip0_1_2)">
<path d="M0 5.5C0 2.46243 2.46243 0 5.5 0C8.53757 0 11 2.46243 11 5.5V106.5C11 109.538 8.53757 112 5.5 112C2.46243 112 0 109.538 0 106.5V5.5Z" fill="#323232"/>
<path d="M124 5.5C124 2.46243 126.462 0 129.5 0C132.538 0 135 2.46243 135 5.5V106.5C135 109.538 132.538 112 129.5 112C126.462 112 124 109.538 124 106.5V5.5Z" fill="#323232"/>
<path d="M21 29.5C21 26.4624 23.4624 24 26.5 24C29.5376 24 32 26.4624 32 29.5V74.5C32 77.5376 29.5376 80 26.5 80C23.4624 80 21 77.5376 21 74.5V29.5Z" fill="#323232"/>
<path d="M104 29.5C104 26.4624 106.462 24 109.5 24C112.538 24 115 26.4624 115 29.5V74.5C115 77.5376 112.538 80 109.5 80C106.462 80 104 77.5376 104 74.5V29.5Z" fill="#323232"/>
<rect x="42" y="54" width="11" height="45" rx="5.5" fill="#323232"/>
<rect x="84" y="54" width="11" height="45" rx="5.5" fill="#323232"/>
<rect x="63" y="75" width="11" height="37" rx="5.5" fill="#323232"/>
<path d="M156.53 80.99H183.379C182.586 73.2622 178.029 67.2187 170.103 67.2187C162.772 67.2187 157.62 72.8659 156.53 80.99ZM190.314 105.065C185.559 109.325 179.614 112 171.49 112C156.332 112 144.641 101.003 144.641 84.8538V84.6557C144.641 69.6956 155.242 57.4104 170.202 57.4104C186.847 57.4104 195.07 71.0826 195.07 83.1696C195.07 86.5381 192.494 88.9158 189.423 88.9158H156.629C157.917 97.4362 163.961 102.192 171.688 102.192C176.741 102.192 180.704 100.408 184.073 97.6343C184.964 96.9408 185.757 96.5445 187.144 96.5445C189.819 96.5445 191.899 98.6251 191.899 101.399C191.899 102.885 191.206 104.173 190.314 105.065ZM218.441 111.703C209.624 111.703 203.382 107.839 203.382 96.3464V68.8039H201.401C198.527 68.8039 196.249 66.5252 196.249 63.6521C196.249 60.7789 198.527 58.5002 201.401 58.5002H203.382V49.5836C203.382 46.3142 206.057 43.6392 209.426 43.6392C212.695 43.6392 215.37 46.3142 215.37 49.5836V58.5002H224.782C227.655 58.5002 230.033 60.7789 230.033 63.6521C230.033 66.5252 227.655 68.8039 224.782 68.8039H215.37V94.464C215.37 99.1204 217.748 101.003 221.81 101.003C223.197 101.003 224.386 100.706 224.782 100.706C227.457 100.706 229.835 102.885 229.835 105.659C229.835 107.839 228.349 109.622 226.664 110.316C224.088 111.207 221.612 111.703 218.441 111.703ZM235.175 105.362V63.9493C235.175 60.5808 237.751 57.9058 241.119 57.9058C244.488 57.9058 247.163 60.5808 247.163 63.9493V69.2993C249.937 62.7604 255.089 57.8067 260.339 57.8067C264.104 57.8067 266.284 60.2836 266.284 63.7511C266.284 66.9215 264.203 69.002 261.528 69.4974C253.008 70.9835 247.163 77.5224 247.163 89.9066V105.362C247.163 108.631 244.488 111.306 241.119 111.306C237.85 111.306 235.175 108.731 235.175 105.362ZM269.444 45.0262V44.4318C269.444 40.8651 272.417 38.5864 276.28 38.5864C280.144 38.5864 283.117 40.8651 283.117 44.4318V45.0262C283.117 48.5929 280.144 50.9706 276.28 50.9706C272.417 50.9706 269.444 48.5929 269.444 45.0262ZM270.336 105.362V63.9493C270.336 60.5808 272.912 57.9058 276.28 57.9058C279.649 57.9058 282.324 60.5808 282.324 63.9493V105.362C282.324 108.731 279.649 111.306 276.28 111.306C273.011 111.306 270.336 108.731 270.336 105.362ZM315.702 112C300.147 112 288.655 99.8139 288.655 84.9529V84.7547C288.655 69.8937 300.147 57.4104 315.9 57.4104C324.123 57.4104 329.77 60.0854 334.229 63.9493C335.021 64.6428 336.111 66.1289 336.111 68.1104C336.111 71.1817 333.634 73.5594 330.563 73.5594C329.077 73.5594 327.789 72.965 326.996 72.3705C323.925 69.7946 320.556 67.9122 315.801 67.9122C307.082 67.9122 300.643 75.4418 300.643 84.5566V84.7547C300.643 94.0677 307.082 101.498 316.296 101.498C321.052 101.498 324.718 99.6158 327.987 96.8417C328.68 96.2473 329.869 95.5538 331.256 95.5538C334.13 95.5538 336.408 97.9315 336.408 100.805C336.408 102.39 335.814 103.678 334.724 104.569C330.068 109.028 324.42 112 315.702 112ZM359.582 111.802C352.944 111.802 345.711 109.721 339.668 105.56C338.38 104.867 337.389 103.381 337.389 101.399C337.389 98.7241 339.47 96.5445 342.244 96.5445C343.234 96.5445 344.126 96.8417 344.82 97.238C349.872 100.607 355.123 102.291 359.879 102.291C365.031 102.291 368.003 100.111 368.003 96.6436V96.4454C368.003 92.3834 362.455 90.9964 356.312 89.114C348.584 86.9344 339.965 83.764 339.965 73.7576V73.5594C339.965 63.6521 348.188 57.6086 358.591 57.6086C364.139 57.6086 369.984 59.1938 375.037 61.8687C376.721 62.7604 377.91 64.3456 377.91 66.4261C377.91 69.2002 375.731 71.2807 372.956 71.2807C371.966 71.2807 371.371 71.0826 370.579 70.6863C366.319 68.5067 361.959 67.1196 358.294 67.1196C353.637 67.1196 350.962 69.2993 350.962 72.2715V72.4696C350.962 76.3335 356.609 77.9187 362.752 79.9001C370.381 82.2779 379 85.7455 379 95.1575V95.3556C379 106.353 370.48 111.802 359.582 111.802Z" fill="#323232"/>
</g>
<defs>
<clipPath id="clip0_1_2">
<rect width="379" height="112" fill="white"/>
</clipPath>
</defs>
</svg>
